# xmcd
#
# Track frame offsets:
# 150
# 18805
# 36565
# 51562
# 69335
# 87472
# 107760
# 123717
# 140817
# 160330
# 178047
#
# Disc length: 2505 seconds
#
#
# Revision: 0
# Processed by: cddbd v1.4PL0 Copyright (c) Steve Scherf et al.
# Submitted via: FreeRIP 2.40 
#
DISCID=a309c70b
DTITLE=Alberto Plaza - Febrero 14
DYEAR=2003
DGENRE=Blues
TTITLE0=Febrero 14
TTITLE1=Me dices que te vas
TTITLE2=El favor del viento
TTITLE3=Pa`lante
TTITLE4=Como duele el alma
TTITLE5=Tu ya no me quieres y punto
TTITLE6=Yo quiero ver la luna
TTITLE7=Ahora
TTITLE8=Tus miedos
TTITLE9=Vuela una lagrima
TTITLE10=100 latidos
EXTD=
EXTT0=
EXTT1=
EXTT2=
EXTT3=
EXTT4=
EXTT5=
EXTT6=
EXTT7=
EXTT8=
EXTT9=
EXTT10=
PLAYORDER=
